<svg width="97" height="46" viewBox="0 0 97 46" fill="none" xmlns="http://www.w3.org/2000/svg">
<path fill-rule="evenodd" clip-rule="evenodd" d="M35.3268 6.12368L43.3354 4.76944V32.3073L35.3268 30.9529V6.12368ZM31.9096 2.70864V34.3682L46.7524 37.0767V0L31.9096 2.70864ZM75.3736 18.1975V21.6108H80.0156V30.9366H71.6053V6.12038H78.8047V11.1968H82.2203V2.7072H68.1898V34.3498H83.4311V18.1975H75.3736ZM17.7458 28.088L17.7646 28.1724C19.6408 19.6456 21.5108 11.1529 23.3715 2.70721H28.4916V34.3496H25.0763V9.63353C25.0262 9.63353 19.391 34.3656 19.391 34.3656H16.1006C16.1006 34.3656 10.4654 9.63353 10.4155 9.63353V34.3496H7V2.70721H12.12C13.9808 11.1529 15.8509 19.6456 17.7272 28.1724C17.7335 28.1442 17.7394 28.1161 17.7458 28.088ZM61.0646 6.12045H50.5765V2.70727H64.7676V6.12045L54.2792 30.9365H64.7676V34.3498H50.5765V30.9365L61.0646 6.12045ZM90.2685 34.35H86.8529V2.7074H90.2685V34.35ZM37.1003 45.9999V45.4751H34.3907V43.8936H36.4916V43.3689H34.3907V41.9542H36.9978V41.4293H33.8141V45.9999H37.1003ZM39.781 41.4292H40.3897L41.6386 45.4108H41.9591L43.208 41.4292H43.8039L42.3431 45.9999H41.2414L39.781 41.4292ZM50.0464 45.9999V45.4751H47.3368V43.8936H49.4382V43.3689H47.3368V41.9542H49.9442V41.4293H46.7605V45.9999H50.0464ZM56.9232 41.4292V45.9999H56.0136L53.8871 42.1782H53.7458V45.9999H53.1824V41.4292H54.092L56.2185 45.251H56.3594V41.4292H56.9232ZM61.9555 41.9416H63.4545V41.4292H59.8672V41.9416H61.3786V46H61.9555V41.9416Z" fill="black"/>
</svg>
