<svg width="97" height="46" viewBox="0 0 97 46" fill="none" xmlns="http://www.w3.org/2000/svg">
<path fill-rule="evenodd" clip-rule="evenodd" d="M34.6601 5.56029V6.12368V30.9529V31.5163L35.2156 31.6102L43.2242 32.9646L44.002 33.0962V32.3073V4.76944V3.98058L43.2242 4.11211L35.2156 5.46635L34.6601 5.56029ZM43.3353 4.76944V5.44557V31.6311V32.3073L42.6687 32.1945L35.3268 30.9529V6.12368L42.6687 4.88217L43.3353 4.76944ZM32.5762 3.26465V33.8122L46.0858 36.2774V0.799333L32.5762 3.26465ZM46.7524 0.677675V0L46.0858 0.121657L31.9096 2.70864V34.3682L46.0858 36.9551L46.7524 37.0767V36.3991V0.677675ZM78.8047 6.78704V6.12038H78.1381H72.2719H71.6053V6.78704V30.2699V30.9366H72.2719H79.3489H80.0156V30.2699V22.2775V21.6108H79.3489H76.0403H75.3736V20.9441V18.8641V18.1975H76.0403H82.7644H83.4311V18.8641V33.6831V34.3498H82.7644H68.8564H68.1898V33.6831V3.37387V2.7072H68.8564H81.5536H82.2203V3.37387V10.5301V11.1968H81.5536H79.4714H78.8047V10.5301V6.78704ZM79.4714 10.5301V6.12038V5.45371H78.8047H71.6053H70.9386V6.12038V30.9366V31.6033H71.6053H80.0156H80.6822V30.9366V21.6108V20.9441H80.0156H76.0403V18.8641H82.7644V33.6831H68.8564V3.37387H81.5536V10.5301H79.4714ZM18.4157 28.3156L18.3783 28.3157L18.378 28.3171L17.7459 28.3164L17.1138 28.3171L17.1135 28.3157L17.0761 28.3156C15.2386 19.965 13.4069 11.647 11.5842 3.37387H7.66667V33.683H9.74884V9.63353V8.96687H10.4155C10.6353 9.0041 10.8947 9.16996 10.951 9.23622C10.9741 9.2693 11.0059 9.32342 11.0162 9.34378C11.0327 9.37781 11.0429 9.40631 11.0457 9.41435L11.0458 9.41451C11.0536 9.43639 11.0593 9.45599 11.0619 9.46497C11.0683 9.48678 11.0751 9.51237 11.0816 9.53727C11.095 9.58913 11.1132 9.66257 11.1354 9.75388C11.18 9.93759 11.2436 10.2053 11.3231 10.5438C11.4823 11.2213 11.7067 12.1884 11.9744 13.3479C12.5099 15.6672 13.2191 18.7592 13.9266 21.8508C14.6342 24.9425 15.3402 28.0342 15.8693 30.3529L16.5083 33.1547L16.6324 33.6989H18.8592L18.9833 33.1547L19.6224 30.3529C20.1515 28.0342 20.8575 24.9425 21.565 21.8508C22.2726 18.7592 22.9818 15.6672 23.5173 13.3479C23.785 12.1884 24.0094 11.2213 24.1686 10.5438C24.2481 10.2053 24.3117 9.93756 24.3564 9.75385C24.3785 9.66254 24.3968 9.58909 24.4102 9.53721C24.4167 9.51231 24.4235 9.48669 24.4298 9.46485C24.4325 9.45586 24.4383 9.43622 24.4461 9.41429L24.4461 9.41415C24.449 9.40612 24.4592 9.37753 24.4757 9.34339C24.4861 9.32299 24.518 9.26878 24.5412 9.23566C24.5976 9.16942 24.8569 9.00396 25.0763 8.96687H25.7429V9.63353V33.683H27.8249V3.37387H23.9073C22.0847 11.647 20.2532 19.965 18.4157 28.3156ZM12.12 2.70721C13.8741 10.6687 15.6365 18.672 17.4046 26.7062L17.6764 27.9414L17.7067 28.0791L17.7104 28.0959L17.7253 28.1637L17.7272 28.1724L17.7289 28.1645L17.7346 28.1386L17.7347 28.1383L17.7418 28.1058L17.7458 28.088L17.7628 28.1645L17.7646 28.1724L17.7665 28.1637L17.7813 28.0961L17.785 28.0793L17.8153 27.9418L18.0872 26.7062C19.8552 18.672 21.6175 10.6687 23.3715 2.70721H27.8249H28.4916V3.37387V33.683V34.3496H27.8249H25.7429H25.0763V33.683V12.5243V10.3002V9.63353C25.0658 9.63353 24.8089 10.7245 24.4096 12.4481C22.9077 18.9313 19.391 34.3656 19.391 34.3656H16.1006C16.1006 34.3656 12.584 18.9318 11.0822 12.4485C10.6829 10.7246 10.426 9.63353 10.4155 9.63353V10.3002V12.5247V33.683V34.3496H9.74884H7.66667H7V33.683V3.37387V2.70721H7.66667H12.12ZM64.1009 30.9365H55.003H54.2792L54.561 30.2699L64.7676 6.12045V3.37394V2.70727H64.1009H51.2432H50.5765V3.37394V5.45378V6.12045H51.2432H60.3408H61.0646L60.7828 6.78711L50.5765 30.9365V33.6832V34.3498H51.2432H64.1009H64.7676V33.6832V31.6032V30.9365H64.1009ZM53.6651 30.677L64.1009 5.98535V3.37394H51.2432V5.45378H61.0646H62.0701L61.6787 6.37997L51.2432 31.0716V33.6832H64.1009V31.6032H54.2792H53.2737L53.6651 30.677ZM87.5195 33.6833H89.6019V3.37407H87.5195V33.6833ZM86.8529 34.35H87.5195H89.6019H90.2685V33.6833V3.37407V2.7074H89.6019H87.5195H86.8529V3.37407V33.6833V34.35ZM34.2574 41.9542V41.8208H34.3907H36.8645V41.5626H33.9474V45.8665H36.967V45.6085H34.3907H34.2574V45.4751V43.8936V43.7603H34.3907H36.3583V43.5022H34.3907H34.2574V43.3689V41.9542ZM36.9978 41.9542H36.8645H34.5241H34.3907V42.0875V43.2355V43.3689H34.5241H36.3583H36.4916V43.5022V43.7603V43.8936H36.3583H34.5241H34.3907V44.0269V45.3418V45.4751H34.5241H36.967H37.1003V45.6085V45.8665V45.9999H36.967H33.9474H33.8141V45.8665V41.5626V41.4293H33.9474H36.8645H36.9978V41.5626V41.8208V41.9542ZM41.5407 45.5442H41.6386H41.9591H42.057L42.0863 45.4507L43.306 41.5625H43.6213L42.2458 45.8666H41.3388L39.9635 41.5625H40.2917L41.5114 45.4507L41.5407 45.5442ZM40.3897 41.4292H39.9209H39.781L39.8236 41.5625L41.2414 45.9999H42.3431L43.7613 41.5625L43.8039 41.4292H43.6639H43.208L41.9591 45.4108H41.6386L40.3897 41.4292ZM47.2035 41.9542V41.8208H47.3368H49.8109V41.5626H46.8938V45.8665H49.9131V45.6085H47.3368H47.2035V45.4751V43.8936V43.7603H47.3368H49.3049V43.5022H47.3368H47.2035V43.3689V41.9542ZM49.9442 41.9542H49.8109H47.4702H47.3368V42.0875V43.2355V43.3689H47.4702H49.3049H49.4382V43.5022V43.7603V43.8936H49.3049H47.4702H47.3368V44.0269V45.3418V45.4751H47.4702H49.9131H50.0464V45.6085V45.8665V45.9999H49.9131H46.8938H46.7605V45.8665V41.5626V41.4293H46.8938H49.8109H49.9442V41.5626V41.8208V41.9542ZM53.9655 42.0449H53.8871H53.7458H53.6124V42.1782V45.8666H53.3157V41.5625H54.0136L56.102 45.3158L56.1401 45.3843H56.2185H56.3594H56.4927V45.251V41.5625H56.7899V45.8666H56.092L54.0036 42.1134L53.9655 42.0449ZM56.0136 45.9999H56.7899H56.9232V45.8666V41.5625V41.4292H56.7899H56.4927H56.3594V41.5625V45.1177V45.251H56.226H56.2185L54.092 41.4292H53.3157H53.1824V41.5625V45.8666V45.9999H53.3157H53.6124H53.7458V45.8666V42.3116V42.1782H53.8791H53.8871L56.0136 45.9999ZM61.8221 41.9416V41.8083H61.9555H63.3212V41.5626H60.0006V41.8083H61.3786H61.512V41.9416V45.8666H61.8221V41.9416ZM63.4545 41.9416H63.3212H62.0888H61.9555V42.075V45.8666V46H61.8221H61.512H61.3786V45.8666V42.075V41.9416H61.2453H60.0006H59.8672V41.8083V41.5626V41.4292H60.0006H63.3212H63.4545V41.5626V41.8083V41.9416Z" fill="black"/>
</svg>
